<?xml version="1.0" encoding="UTF-8"?>
<!DOCTYPE svg PUBLIC "-//W3C//DTD SVG 1.1//EN" "http://www.w3.org/Graphics/SVG/1.1/DTD/svg11.dtd">
<!-- Creator: CorelDRAW 2019 (64 Bit) -->
<svg xmlns="http://www.w3.org/2000/svg" xml:space="preserve" width="210.705mm" height="31.9942mm" version="1.1" style="shape-rendering:geometricPrecision; text-rendering:geometricPrecision; image-rendering:optimizeQuality; fill-rule:evenodd; clip-rule:evenodd"
viewBox="0 0 21069.44 3199.26"
 xmlns:xlink="http://www.w3.org/1999/xlink">
 <defs>
  <style type="text/css">
   <![CDATA[
    .fil0 {fill:#606062}
    .fil1 {fill:#606062;fill-rule:nonzero}
   ]]>
  </style>
 </defs>
 <g id="Camada_x0020_1">
  <metadata id="CorelCorpID_0Corel-Layer"/>
  <path class="fil0" d="M20534.16 1.61c-4.65,1.55 -12.94,5.44 -18.11,9.06 -7.76,4.92 -15.01,6.73 -37.01,8.8 -31.05,3.1 -45.8,8.28 -65.47,23.81 -16.31,12.94 -37.27,37.52 -45.55,53.31 -3.36,6.73 -7.51,13.97 -9.06,16.04 -1.55,2.07 -4.66,9.06 -7.24,15.53 -7.25,17.6 -8.54,87.21 -2.85,128.09 2.33,17.08 5.43,39.08 6.99,49.17 3.88,27.69 1.81,45.29 -7.51,63.41 -4.66,8.54 -7.25,15.53 -5.95,15.53 1.03,0 8.28,-4.92 16.04,-10.87 16.57,-13.46 51.76,-39.86 63.93,-48.14 4.91,-3.36 10.61,-8.02 12.93,-10.61 2.33,-2.59 10.36,-9.58 17.86,-15.79 18.12,-14.49 42.44,-45.28 75.05,-94.97 10.61,-16.57 13.2,-18.89 19.93,-18.64 4.4,0 12.68,3.63 19.41,8.54l11.64 8.54 1.82 22.78c3.36,43.48 18.37,109.46 30.79,134.56 4.14,8.54 11.13,19.41 15.27,24.33 9.06,10.35 10.09,21.22 3.37,39.07 -3.63,9.58 -4.4,20.97 -4.4,66 0.25,69.09 4.14,109.71 11.64,126.79 3.11,6.99 10.87,17.86 17.34,23.55 9.84,9.06 11.39,11.91 9.84,17.34 -0.78,3.63 -3.63,7.25 -6.22,8.03 -2.58,1.03 -9.31,6.21 -14.75,11.9 -10.35,10.61 -14.75,21.48 -19.67,49.17 -1.55,7.77 -4.14,20.71 -5.69,28.47 -1.81,8.28 -3.1,34.94 -3.1,62.37l0 48.13 10.61 11.65c15.78,17.08 17.85,21.74 12.68,29.5 -2.33,3.63 -6.47,6.21 -10.1,6.21 -22.51,0 -33.64,16.31 -49.68,73.76 -11.65,41.92 -21.74,86.44 -21.74,95.49 0,2.59 3.62,10.61 7.76,17.6 4.4,6.73 7.77,13.98 7.77,16.05 0,4.14 -8.29,11.9 -12.69,11.9 -1.55,0 -9.05,3.11 -16.56,6.73 -9.31,4.92 -25.62,19.15 -52.27,46.07 -37.79,38.04 -66,68.32 -66,70.65 0,1.55 -17.08,24.32 -21.99,29.5 -2.07,2.33 -3.89,4.92 -3.89,5.95 0,1.04 -5.69,9.58 -12.94,19.15 -13.71,18.38 -15.78,26.4 -8.79,36.49 5.69,7.76 1.29,17.6 -8.54,19.93 -10.36,2.59 -30.8,18.37 -47.11,36.23 -25.87,28.47 -28.72,31.83 -28.72,34.68 0,1.29 -1.04,2.59 -2.33,2.59 -1.81,0 -27.43,49.17 -32.61,62.11 -0.77,2.07 -4.14,9.05 -7.76,15.26 -7.51,13.2 -7.76,17.6 -2.85,27.44 6.21,11.9 2.07,17.08 -18.11,22.51 -58.23,16.31 -93.95,35.46 -126.03,67.81l-18.63 18.89 -19.15 1.81c-17.6,1.55 -19.67,1.29 -25.36,-4.14 -3.11,-3.11 -5.95,-6.99 -5.95,-8.8 0,-1.55 -6.47,-11.9 -14.24,-23.03 -7.76,-10.87 -14.23,-20.45 -14.23,-21.48 0,-1.04 -2.33,-3.88 -5.18,-6.47 -2.84,-2.33 -5.17,-6.21 -5.17,-8.28 0,-2.07 -4.14,-8.54 -9.32,-14.24l-9.32 -10.35 -41.92 0c-41.15,0 -42.44,0.26 -79.19,10.61 -25.62,7.25 -40.37,12.94 -46.58,17.86 -4.92,3.88 -11.91,7.76 -15.53,8.8 -26.4,7.24 -49.43,15.53 -57.71,20.44 -14.24,8.54 -61.85,56.42 -79.19,79.19 -25.11,33.39 -33.91,45.55 -35.98,49.43 -1.03,2.07 -6.47,10.61 -12.16,19.15 -5.69,8.28 -11.13,16.57 -11.9,18.12 -0.78,1.55 -2.85,5.17 -4.4,8.02 -1.81,2.85 -6.47,11.65 -10.87,19.41 -16.31,29.24 -16.05,29.24 -32.61,34.16 -16.56,4.92 -43.74,6.21 -46.32,2.07 -3.89,-6.21 -9.58,-54.6 -11.91,-100.66 -1.29,-27.43 -3.88,-55.9 -5.95,-63.4 -2.07,-7.25 -4.4,-24.85 -5.44,-39.08 -1.81,-27.69 -2.58,-29.5 -17.85,-40.63 -11.65,-8.28 -29.51,-9.84 -41.93,-3.37 -4.14,2.07 -10.35,3.89 -13.97,3.89 -4.92,0 -16.82,10.61 -49.95,44.51 -52.02,53.57 -56.93,61.59 -75.31,126.28 -2.07,7.76 -5.17,21.74 -6.73,31.05 -7.24,40.89 -10.61,62.63 -13.97,87.99 -6.47,48.66 -11.13,60.04 -27.95,68.84 -10.61,5.44 -19.15,4.4 -28.47,-3.88 -7.5,-6.73 -8.54,-9.32 -10.09,-27.69 -1.04,-11.39 -2.07,-28.21 -2.07,-37.78 -0.26,-10.1 -2.33,-23.04 -5.18,-31.06 -3.36,-9.57 -5.43,-23.81 -6.47,-46.06 -0.77,-17.86 -2.58,-36.49 -3.88,-41.41 -5.17,-17.08 -11.13,-50.47 -13.2,-72.98 -2.33,-25.1 -6.98,-34.16 -21.74,-43.22 -10.61,-6.73 -14.75,-6.73 -26.91,-0.52 -22,11.39 -31.83,31.06 -35.45,70.14 -1.04,10.61 -3.11,20.96 -4.92,23.03 -3.37,4.4 -6.21,27.43 -8.28,72.46 -2.07,43.74 3.88,82.82 24.32,159.41 3.37,12.68 7.25,27.43 8.54,32.35 6.47,25.62 -1.03,49.17 -15.78,49.17 -6.21,0 -9.06,-2.07 -14.75,-11.13 -7.25,-11.13 -13.2,-22.77 -22.26,-43.22 -2.59,-6.47 -6.21,-13.97 -7.51,-16.56 -4.65,-9.06 -25.36,-70.91 -25.36,-75.83 0,-2.07 -1.81,-7.5 -3.62,-11.9 -2.07,-4.66 -5.18,-14.75 -6.47,-22.52 -1.55,-7.76 -5.18,-22.51 -8.28,-32.35 -2.85,-10.09 -6.47,-22.77 -8.02,-28.46 -9.58,-36.24 -57.71,-93.95 -91.62,-109.98 -22.77,-10.61 -31.83,-10.09 -61.07,3.36 -17.86,8.54 -30.54,34.68 -30.54,64.18 0,6.47 -1.81,17.6 -3.88,24.59 -5.44,18.37 -10.09,55.64 -10.35,83.85 -0.52,45.55 -4.92,57.71 -23.04,62.37 -6.21,1.55 -15.01,6.21 -19.66,10.35 -4.66,4.4 -11.13,9.57 -14.5,11.9 -6.72,4.4 -5.95,4.66 -24.58,-9.83 -35.97,-27.95 -132.75,-32.09 -217.12,-9.84 -39.34,10.61 -79.19,28.21 -96.27,42.45 -5.18,4.4 -10.87,6.47 -17.86,6.47 -9.05,0 -10.87,-1.04 -17.08,-11.13 -3.88,-5.95 -9.31,-13.46 -12.16,-16.82 -7.76,-8.8 -50.72,-28.47 -68.58,-31.32 -8.8,-1.29 -17.34,-3.36 -19.15,-4.66 -7.51,-4.65 -50.47,-9.31 -96.01,-10.35 -43.74,-1.03 -51.5,-0.52 -72.47,4.4 -32.6,7.76 -73.23,22 -93.16,32.35 -20.96,10.87 -56.16,37.27 -68.58,51.5 -3.88,4.14 -8.54,9.32 -10.87,11.65 -2.33,2.33 -8.54,12.16 -13.98,22.25 -5.43,9.84 -10.61,19.41 -11.9,20.71 -6.99,9.05 -19.41,55.38 -21.48,78.93 -1.81,23.55 -8.8,43.73 -19.67,55.9 -9.32,10.87 -26.4,36.23 -29.76,45.03 -2.59,6.47 -8.02,18.11 -23.03,49.68 -8.02,16.57 -14.49,31.32 -14.49,32.61 0,1.3 -4.15,12.68 -9.06,24.85 -4.92,12.42 -9.06,25.36 -9.06,28.98 0,7.51 5.69,19.41 11.65,24.33 5.17,4.4 15.26,-0.52 20.44,-10.1 34.42,-65.73 34.68,-65.99 48.91,-64.18 9.32,1.3 10.35,0.78 22,-13.71 6.73,-8.28 17.86,-26.14 24.58,-39.34 6.73,-13.2 14.5,-26.39 16.83,-29.5 5.43,-6.47 39.85,-26.92 45.54,-26.92 2.07,0 4.4,-1.03 5.18,-2.32 0.78,-1.3 7.76,-5.44 15.79,-9.06 12.68,-6.47 15.01,-8.8 21.99,-23.81 11.13,-23.03 12.17,-23.03 54.35,-10.09 21.48,6.72 23.03,6.72 82.81,5.69 60.56,-1.04 61.08,-1.04 98.35,-10.61 20.7,-5.44 41.14,-11.39 45.28,-13.2 4.4,-1.81 10.61,-4.14 14.24,-5.18 13.97,-3.88 34.16,-13.45 60.3,-28.2l12.16 -6.99 96.53 -2.33c68.84,-1.81 99.62,-3.37 107.91,-5.95 6.47,-2.07 22.51,-4.4 35.97,-5.44 23.29,-1.81 61.33,-9.06 75.82,-15.01 9.06,-3.36 17.6,-1.29 26.92,6.73 13.97,11.91 30.8,23.55 43.22,30.02 6.73,3.62 12.16,7.25 12.16,8.28 0,0.78 3.62,2.33 8.02,3.37 4.4,1.03 10.87,3.36 14.75,5.43 3.89,2.07 8.29,3.62 9.84,3.62 1.81,0 6.47,1.82 10.35,3.89 4.14,2.07 9.83,3.88 12.68,3.88 2.85,0 13.46,1.81 23.29,3.88 10.1,2.07 25.62,3.88 34.94,3.88 9.32,0 23.29,0.78 31.05,1.81 13.72,1.56 15.01,2.33 36.49,24.59 17.6,18.11 23.81,22.77 29.51,22.77 13.71,0 16.3,5.18 15.01,30.54 -0.78,12.94 0,25.62 1.55,29.5 2.59,6.73 3.11,6.99 16.3,5.44 9.58,-1.04 20.45,-5.7 38.05,-15.53 13.71,-7.76 26.65,-15.79 28.98,-17.86 6.21,-5.43 23.81,-4.66 31.83,1.81 8.8,6.99 8.54,14.75 -0.77,28.73 -10.35,15.53 -19.41,37.27 -17.34,42.44 1.55,3.88 6.73,4.14 55.38,2.85 42.7,-1.3 57.19,-2.59 71.68,-6.73 24.07,-6.99 36.75,-12.68 48.14,-21.22 10.61,-8.28 27.95,-15.27 41.92,-17.08 11.65,-1.55 17.08,2.33 25.11,18.11 7.5,14.24 42.18,46.85 58.74,55.39 7.51,3.88 20.97,13.71 30.02,21.73 11.65,10.61 19.41,15.27 26.66,16.57 10.61,2.07 21.74,10.09 21.74,16.04 0,5.44 -11.39,8.54 -30.54,8.54 -9.58,0 -22.52,1.56 -28.99,3.63 -6.46,1.81 -19.66,4.39 -29.76,5.43 -9.83,1.03 -20.18,2.85 -22.51,4.14 -2.59,1.29 -11.39,3.62 -19.41,5.18 -8.28,1.55 -16.05,3.62 -17.6,4.65 -1.29,1.04 -9.57,4.4 -18.11,7.77 -8.54,3.1 -20.19,8.02 -25.88,10.61 -22.26,10.61 -54.87,26.91 -66,32.87 -26.65,14.75 -103.24,53.31 -117.74,59.26 -8.54,3.62 -18.89,8.02 -23.29,9.83 -8.54,3.89 -68.84,27.69 -106.09,42.19 -12.68,4.91 -28.47,11.12 -34.94,13.71 -6.47,2.59 -18.11,7.25 -25.88,10.35 -7.76,3.11 -19.93,8.29 -27.17,11.65 -12.42,5.69 -41.41,19.15 -60.82,28.21 -11.39,5.43 -18.89,9.83 -24.58,14.49 -2.33,2.07 -6.47,4.92 -9.32,6.47 -26.4,14.75 -69.36,47.88 -69.62,53.57 0,1.04 -3.36,7.76 -7.76,15.01 -4.14,6.99 -6.73,12.94 -5.69,12.94 1.29,0 9.05,-3.36 17.34,-7.76 10.35,-5.18 20.44,-8.28 32.09,-9.06 9.31,-1.04 27.69,-3.36 40.37,-5.18 57.45,-9.31 150.35,-16.3 154.75,-11.9 1.55,1.55 5.17,2.85 7.76,2.85 2.85,0 15.01,2.32 27.17,5.43 21.22,5.18 39.08,4.92 45.81,-0.26 1.55,-1.03 11.9,-3.88 23.29,-5.95 18.12,-3.37 27.95,-3.37 77.64,-0.26 56.93,3.36 91.61,6.99 99.37,10.35 2.33,0.78 13.46,3.11 24.85,5.18 53.31,9.06 87.73,17.34 128.09,30.02 18.89,6.21 19.41,6.47 20.19,15.27 0.52,8.54 0.26,9.05 -18.12,17.85 -18.89,9.32 -19.92,10.1 -25.62,25.62 -4.92,12.94 -16.3,24.85 -35.71,37.27 -15.27,9.83 -23.55,13.72 -58.49,26.91 -5.69,2.07 -14.49,5.7 -19.41,7.77 -5.17,2.33 -23.03,4.92 -41.4,6.21 -30.54,2.07 -52.8,5.95 -80.75,14.23 -6.73,2.07 -30.02,4.92 -51.76,6.21 -21.74,1.3 -49.68,3.89 -62.11,5.44 -16.82,2.33 -30.79,2.33 -54.34,0.26 -17.6,-1.81 -40.63,-3.63 -51.24,-4.4 -10.62,-1.04 -24.33,-2.85 -30.54,-4.14 -8.02,-1.81 -15.01,-1.3 -25.88,1.29 -22,5.7 -44.51,7.51 -56.16,4.4 -5.69,-1.29 -13.2,-3.36 -16.82,-4.14 -5.7,-1.55 -5.18,-0.52 3.88,7.51 9.32,8.28 18.12,13.2 42.7,24.06 4.92,2.33 11.91,5.7 15.53,7.25 11.39,5.69 54.35,19.41 65.47,20.7 5.96,1.04 16.83,3.11 23.81,5.18 20.19,5.43 55.9,11.65 67.81,11.65 5.95,0 19.41,1.55 30.02,3.62 45.03,8.8 169.75,7.24 206.24,-2.07 7.77,-2.07 22.52,-4.4 32.35,-5.44 10.1,-1.03 31.06,-5.43 46.59,-9.57 15.78,-4.14 33.64,-8.54 40.11,-9.84 19.15,-3.62 59.26,-16.56 76.34,-24.32 4.4,-2.07 10.87,-4.66 15.01,-5.44 3.89,-1.03 7.77,-2.84 8.54,-4.14 0.78,-1.29 3.11,-2.33 5.18,-2.33 3.62,0 55.12,-25.1 124.73,-60.81 13.2,-6.73 26.39,-15.27 29.24,-19.15 2.85,-3.63 7.25,-9.58 9.58,-12.94 3.62,-4.66 9.05,-6.73 24.06,-9.32 43.22,-7.51 82.56,-17.6 92.91,-24.33 10.09,-6.21 41.41,-30.02 54.09,-40.89 11.13,-9.83 36.49,-44.51 36.49,-50.2 0,-1.55 1.81,-6.47 3.88,-10.87 4.66,-10.35 11.65,-29.5 13.46,-37.53 1.81,-7.24 5.43,-9.05 28.21,-15.78 9.83,-2.85 26.13,-7.51 35.97,-10.61 25.1,-7.25 43.73,-16.82 54.34,-27.95 10.36,-11.13 11.91,-13.98 19.16,-38.04 2.84,-10.1 8.79,-29.25 13.19,-42.71 7.51,-23.55 7.77,-26.13 7.77,-73.23 0,-46.85 -0.26,-49.17 -6.47,-60.82 -3.62,-6.73 -6.47,-13.46 -6.47,-15.01 0,-3.62 -17.34,-20.7 -32.35,-32.09 -24.07,-17.86 -27.17,-21.48 -27.17,-30.28 0,-6.73 1.29,-8.8 5.95,-9.57 3.1,-0.78 11.64,-2.59 18.63,-4.14 7.25,-1.82 18.89,-4.15 25.88,-5.7 7.25,-1.55 14.24,-3.1 16.05,-3.62 1.81,-0.52 6.21,-5.44 9.57,-11.13 4.92,-7.76 9.06,-10.87 16.31,-12.68 5.43,-1.29 15.78,-3.88 22.77,-5.69 7.25,-1.81 20.44,-4.66 29.76,-6.47 9.32,-1.81 23.29,-5.7 31.06,-9.06 7.76,-3.11 18.11,-6.73 23.03,-8.28 4.91,-1.3 11.38,-4.14 14.23,-5.95 3.11,-1.82 8.8,-4.14 13.2,-5.18 4.14,-0.78 18.89,-9.32 32.87,-18.63l25.36 -16.83 25.1 1.3c28.73,1.55 64.7,7.76 68.84,11.9 4.4,4.4 26.4,3.63 30.28,-1.03 1.81,-2.07 5.95,-3.88 9.06,-3.88 9.05,0 12.42,5.95 10.61,19.41 -0.78,6.46 -2.33,17.08 -3.11,23.55 -2.59,19.92 8.28,53.05 28.47,87.47 6.21,10.35 15.27,27.69 20.7,38.56 9.58,19.93 14.75,25.1 24.59,25.1 6.73,0 11.9,10.09 14.23,27.17 2.07,13.72 17.86,49.43 30.28,68.07 4.14,6.21 7.51,11.64 7.51,12.42 0,0.52 6.47,10.87 14.23,22.77 7.76,11.91 14.23,22.52 14.23,23.55 0,1.3 1.81,3.88 3.89,6.21 2.32,2.33 8.54,10.61 14.23,18.38 29.24,41.15 48.65,59.52 63.14,59.52 7.77,0 17.08,6.21 17.08,11.65 0,2.84 14.76,16.04 27.18,24.06 34.42,22.52 52.79,29.25 84.11,30.54 12.42,0.26 23.81,2.59 31.83,5.95 13.71,5.96 15.53,4.14 5.17,-5.43 -11.64,-10.35 -22.25,-16.82 -31.31,-18.37 -5.43,-1.04 -13.2,-6.47 -22,-15.53 -9.57,-9.58 -20.7,-17.34 -38.3,-25.88 -13.71,-6.73 -25.62,-12.17 -26.65,-12.17 -1.3,0 -5.44,-2.32 -9.58,-5.43 -5.69,-3.88 -7.5,-7.25 -7.5,-13.72 0,-4.4 -1.82,-14.49 -3.89,-22.25 -2.33,-7.77 -5.17,-17.86 -6.21,-22 -2.59,-9.32 -13.71,-33.64 -34.42,-75.05 -32.09,-64.7 -48.91,-91.61 -70.39,-112.56 -13.72,-13.46 -14.49,-14.76 -14.49,-27.18 0,-9.06 -2.33,-17.08 -7.51,-27.17 -4.14,-7.77 -10.61,-20.7 -14.49,-28.47 -3.62,-7.76 -7.76,-16.04 -9.06,-18.11 -1.29,-2.07 -5.95,-10.87 -10.61,-19.41 -4.4,-8.54 -9.06,-16.83 -10.09,-18.12 -3.37,-4.14 -23.29,-43.73 -23.29,-46.32 0,-4.66 -23.29,-34.42 -33.39,-42.44 -5.95,-4.66 -12.42,-12.94 -14.75,-18.12 -4.66,-11.13 -7.5,-39.34 -4.4,-43.74 1.56,-2.07 23.04,-3.36 77.12,-3.88 76.87,-0.77 105.84,0.52 110.5,5.18 1.55,1.55 3.62,10.61 4.66,20.44 3.88,30.02 12.94,55.9 28.46,79.71 2.85,4.14 6.22,10.35 7.51,13.46 1.29,2.85 3.62,6.21 4.92,6.99 1.55,0.77 3.36,4.65 4.4,8.54 2.33,9.57 11.12,18.89 18.11,18.89 10.09,0 14.24,5.69 16.82,22.77 2.07,15.79 9.06,33.64 18.38,47.1 2.33,3.63 8.8,13.46 14.23,22 5.44,8.54 10.61,16.04 11.39,16.82 0.77,0.78 6.21,8.54 12.16,17.34 13.46,19.93 14.49,21.22 36.23,44.25 17.86,18.38 18.12,18.64 31.32,18.64 7.5,0 13.45,1.03 13.45,2.59 0,1.29 6.73,5.43 15.01,9.05 8.03,3.88 16.82,7.77 19.15,9.06 4.92,2.85 19.41,6.73 39.86,10.87 11.39,2.33 15.78,2.07 30.8,-2.85 9.83,-2.84 20.7,-5.43 24.32,-5.43 6.47,-0.26 6.21,-0.52 -2.33,-5.18 -4.91,-2.84 -12.16,-4.92 -15.78,-5.17 -3.89,0 -9.58,-2.07 -12.94,-4.66 -11.65,-8.8 -41.15,-18.64 -67.03,-22.26 -13.72,-2.07 -18.12,-5.43 -18.12,-13.46 0,-3.36 -2.32,-10.61 -5.17,-15.78 -2.85,-5.44 -5.18,-11.65 -5.18,-13.98 0,-6.98 -21.22,-53.83 -36.23,-79.96 -5.43,-9.32 -13.97,-24.85 -19.15,-34.68 -11.13,-20.7 -28.73,-42.7 -37.01,-45.81 -4.4,-1.55 -5.95,-4.91 -7.5,-17.08 -1.3,-10.35 -4.4,-19.15 -10.35,-28.72 -4.92,-7.51 -8.8,-15.01 -8.8,-16.57 0,-1.55 -1.56,-4.91 -3.63,-6.98 -1.81,-2.33 -6.21,-9.32 -9.57,-15.79 -3.37,-6.47 -7.51,-13.46 -9.06,-15.53 -3.1,-3.88 -16.04,-28.98 -27.43,-52.79 -3.11,-6.99 -13.2,-20.19 -22.26,-28.99 -19.67,-19.41 -29.5,-37 -28.46,-49.94l0.77 -9.32 31.06 0c32.86,-0.26 70.13,-4.14 82.29,-8.8 4.14,-1.55 21.22,-2.85 38.3,-2.85l30.8 0 2.85 7.25c1.55,3.88 4.4,13.98 6.21,22.52 5.17,22.25 8.8,28.98 45.29,84.1 5.17,8.03 10.09,16.31 11.12,18.9 1.04,2.58 4.4,4.4 8.29,4.4 11.12,0 16.56,4.39 18.11,15.01 0.78,5.17 2.07,11.9 2.59,15.01 0.78,2.84 8.8,16.82 18.11,30.53 9.32,13.98 16.83,26.4 16.83,27.69 0,1.3 1.03,2.33 2.33,2.33 1.29,0 8.54,8.54 16.3,18.64 31.83,42.18 57.19,65.47 70.65,64.69 5.18,-0.51 11.65,1.56 17.08,5.44 10.35,6.99 19.15,10.35 47.62,18.37 19.41,5.44 22,5.7 33.64,2.33 7.25,-2.07 15.79,-4.4 18.89,-5.18 5.44,-1.29 4.14,-2.58 -10.35,-10.35 -18.37,-9.83 -41.92,-18.89 -49.95,-18.89 -7.76,0 -22.51,-4.66 -28.2,-9.06 -2.59,-2.07 -5.7,-9.05 -6.99,-15.52 -1.3,-6.47 -6.21,-19.67 -10.87,-29.25 -13.72,-27.17 -27.95,-53.05 -31.83,-57.71 -2.07,-2.07 -3.63,-4.92 -3.63,-5.69 0,-1.04 -4.14,-7.51 -9.05,-14.49 -4.92,-6.73 -9.06,-13.2 -9.06,-14.24 0,-3.1 -27.95,-37.52 -37.01,-45.55 -7.76,-6.72 -9.57,-10.09 -9.57,-18.11 0,-5.44 -1.82,-11.13 -3.89,-12.94 -2.07,-1.81 -3.88,-4.4 -3.88,-5.95 0,-1.56 -3.88,-8.54 -8.8,-15.79 -4.66,-7.25 -15.27,-23.81 -23.55,-36.49 -34.68,-54.09 -44.51,-67.28 -59.78,-81 -10.87,-9.58 -17.6,-18.12 -20.44,-25.62 -2.33,-6.21 -8.03,-14.24 -12.94,-17.6 -9.32,-7.25 -35.97,-15.53 -58.23,-18.11 -19.41,-2.33 -54.35,-8.8 -57.19,-10.62 -4.4,-2.58 -2.33,-11.12 3.36,-15 3.36,-2.33 11.39,-4.15 18.89,-4.15 15.53,0 45.29,-4.65 49.17,-7.5 1.3,-1.29 6.73,-3.11 11.65,-4.14 4.92,-1.04 15.27,-5.44 23.03,-9.32 13.2,-6.98 14.23,-7.24 18.63,-3.36 2.59,2.33 5.44,6.73 6.47,9.83 4.66,15.53 15.79,40.63 23.55,52.54 4.66,7.5 8.54,14.49 8.54,15.53 0,2.58 9.06,10.87 19.93,18.37 7.51,5.43 10.87,12.16 14.75,28.98 1.81,8.54 26.66,45.81 44.77,67.03 18.64,22 28.47,29.5 47.88,36.49 9.06,3.37 17.34,6.99 18.89,8.28 4.66,4.14 33.13,2.33 40.63,-2.59l7.25 -4.65 -7.51 -5.7c-4.14,-2.84 -14.23,-7.24 -22.51,-9.83 -19.67,-5.44 -23.29,-9.06 -25.1,-23.81 -2.59,-21.22 -37.53,-86.95 -59.01,-110.75 -6.99,-7.77 -10.35,-14.75 -12.94,-25.88 -5.43,-25.36 -33.64,-74.79 -57.71,-101.44 -8.54,-9.58 -18.63,-22.77 -22,-29.5 -3.36,-6.73 -8.79,-13.98 -11.9,-16.05 -17.08,-11.13 -60.3,-15.01 -92.91,-8.28 -27.69,5.95 -35.45,-1.29 -31.57,-28.21 2.07,-12.42 4.14,-14.75 17.08,-19.15 24.33,-7.76 78.67,-79.19 94.2,-123.17 18.89,-53.83 20.19,-64.7 9.84,-85.92 -6.73,-13.98 -7.25,-16.31 -4.15,-22.26 2.07,-3.62 5.7,-7.25 8.55,-8.28 7.24,-2.33 18.63,-28.47 21.73,-50.47 4.92,-33.64 3.63,-91.09 -2.58,-117.74 -12.69,-54.6 -13.2,-55.38 -30.8,-74.53 -15.53,-16.82 -16.31,-18.11 -13.2,-24.33 1.81,-3.36 5.69,-7.76 8.54,-9.31 19.67,-11.91 21.48,-13.72 23.03,-23.03 1.04,-5.44 2.59,-10.36 3.89,-11.13 1.03,-0.78 2.84,-5.7 3.62,-10.87 1.55,-9.32 5.43,-26.14 13.2,-57.71 7.24,-29.25 12.16,-63.92 11.12,-78.93l-0.77 -15.53 -13.98 -4.4c-17.34,-5.69 -20.96,-8.54 -20.96,-17.86 0,-8.02 5.95,-14.75 21.22,-24.58 15.79,-10.1 19.41,-19.67 22.78,-60.56 1.55,-16.3 3.88,-40.11 5.43,-53.05 1.81,-13.2 2.33,-36.23 1.29,-53.57 -1.55,-33.65 -6.46,-46.84 -19.92,-56.68 -9.32,-6.73 -9.58,-15.01 -0.78,-23.29 3.62,-3.36 9.58,-11.65 12.94,-18.37 5.69,-11.13 6.21,-15.27 6.21,-46.59 -0.26,-54.86 -9.57,-134.56 -19.41,-166.91 -4.66,-14.49 -8.28,-18.89 -20.44,-22.77 -9.84,-3.11 -12.16,-13.72 -4.66,-21.22 10.87,-10.35 13.98,-37.01 7.25,-59.78 -2.07,-6.73 -5.7,-19.67 -8.03,-28.99 -2.32,-9.32 -6.47,-22.77 -9.31,-29.76 -2.59,-7.25 -4.92,-15.01 -4.92,-17.08 0,-9.32 -26.4,-56.68 -35.2,-63.4 -9.57,-7.51 -10.86,-13.46 -4.65,-23.04 4.65,-7.24 3.36,-16.04 -4.66,-32.86 -4.92,-10.36 -17.6,-28.73 -23.81,-34.42 -1.55,-1.56 -8.28,-9.32 -14.75,-17.34 -6.73,-8.28 -14.75,-17.08 -18.12,-19.93 -3.36,-2.85 -10.35,-8.8 -15.53,-12.94 -5.17,-4.4 -16.3,-11.13 -24.58,-14.75 -8.54,-3.62 -18.89,-8.28 -23.29,-10.35 -10.87,-4.92 -34.16,-6.47 -44.77,-3.37l-0.01 0zm-565.69 1641.7c4.92,4.66 6.47,9.06 6.47,17.86 0,6.47 -1.55,12.94 -3.1,14.23 -1.81,1.56 -14.5,11.39 -27.95,21.74 -13.46,10.35 -28.73,22.77 -33.64,27.43 -8.29,7.51 -10.1,8.28 -22,6.99 -6.99,-0.52 -18.12,-2.07 -24.59,-3.36 -8.28,-1.56 -17.85,-1.04 -33.64,2.33 -12.16,2.58 -24.33,4.65 -27.17,4.65 -7.77,0 -42.7,19.15 -42.7,23.3 0,4.14 -16.57,10.09 -21.23,7.5 -7.24,-3.88 -5.43,-12.68 6.47,-30.02 10.1,-14.49 40.63,-50.21 51.76,-60.04 2.33,-2.07 4.4,-5.43 4.4,-7.25 0,-8.54 11.13,-10.61 65.99,-11.9l54.35 -1.29 18.12 -9.32c10.09,-4.92 19.15,-9.06 20.18,-9.06 1.04,-0.26 4.92,2.59 8.28,6.21l0 0zm-539.03 63.67c2.33,2.84 4.92,11.9 5.95,20.96 0.78,9.06 3.11,21.48 4.92,27.95 2.07,6.47 5.43,25.1 7.76,41.4 2.59,16.31 5.69,34.68 6.99,40.89 1.29,5.96 1.81,13.72 0.77,17.08 -2.58,10.61 -31.31,27.44 -46.84,27.44 -4.14,0 -15.52,2.32 -25.36,5.17 -19.41,5.44 -31.57,6.47 -37.26,2.85 -5.7,-3.62 -4.15,-20.96 4.65,-48.4 4.4,-14.23 9.84,-32.09 12.17,-39.85 2.33,-7.76 5.69,-18.89 7.76,-24.59 1.81,-5.69 6.47,-23.29 10.09,-38.81 3.89,-15.79 8.54,-30.02 10.35,-32.09 4.15,-4.4 18.9,-7.77 27.18,-6.22 3.62,0.78 8.28,3.63 10.87,6.22zm-536.71 117.74c3.11,1.03 6.21,4.14 6.73,7.24 0.78,2.85 3.62,19.93 6.73,37.79 6.73,37.78 15.53,73.49 23.03,92.39 3.11,7.5 7.51,19.15 10.35,25.88 2.59,6.98 8.54,20.44 13.2,30.53 4.66,9.84 10.61,23.04 13.46,28.99 6.21,13.2 5.43,18.11 -3.37,24.58 -10.09,7.51 -15.26,4.4 -34.67,-21.48 -15.79,-20.96 -60.56,-64.95 -78.68,-77.38l-16.3 -10.87 1.81 -25.1c1.04,-16.3 3.88,-30.54 7.76,-41.66 3.63,-9.32 7.51,-26.92 8.8,-39.34 3.63,-30.8 4.92,-33.13 21.74,-33.13 7.51,0 16.05,0.78 19.41,1.56l0 0z"/>
  <path class="fil1" d="M952.71 2536.63l-952.71 -478.82 0 -65.43 952.71 -534.03 0 166.41 -711.03 394.47 0 4.16 711.03 347.95 0 165.28zm1008.3 129.72c-42.74,23.45 -99.46,35.18 -169.43,35.18 -198.94,0 -298.04,-110.81 -298.04,-332.45l0 -671.32 -195.15 0 0 -155.06 195.15 0 0 -276.86 181.54 -59 0 335.85 285.93 0 0 155.06 -285.93 0 0 639.55c0,76.03 12.86,130.1 38.96,162.63 25.72,32.53 68.46,48.79 128.59,48.79 45.76,0 85.1,-12.48 118.37,-37.82l0 155.44zm1136.52 -510.96l-801.05 0c3.03,126.32 37.07,223.91 102.11,292.74 65.06,68.46 154.31,102.87 268.16,102.87 127.83,0 245.08,-41.98 352.48,-126.32l0 170.57c-99.84,72.62 -231.84,108.55 -395.6,108.55 -160.36,0 -286.31,-51.44 -377.83,-154.31 -91.91,-103.25 -137.67,-248.11 -137.67,-434.94 0,-176.63 50.31,-320.34 150.15,-431.54 100.22,-111.19 224.66,-166.79 372.91,-166.79 148.64,0 263.24,48.03 344.55,144.09 81.32,95.7 121.78,229.2 121.78,399.77l0 95.31zm-186.08 -153.92c-0.76,-104.76 -26.1,-186.46 -75.65,-245.09 -49.92,-58.24 -119.13,-87.37 -208.01,-87.37 -85.48,0 -158.47,30.64 -218.23,91.91 -59.76,61.28 -96.83,141.45 -110.81,240.55l612.7 0zm1273.43 675.86l-181.91 0 0 -177.38 -4.16 0c-79.05,136.15 -195.54,203.86 -349.09,203.86 -113.08,0 -201.59,-29.88 -265.51,-89.64 -63.92,-59.76 -95.69,-139.18 -95.69,-238.28 0,-211.8 124.81,-335.47 374.43,-369.89l340.01 -47.65c0,-192.89 -77.92,-289.34 -233.74,-289.34 -136.53,0 -259.83,46.53 -369.89,139.56l0 -186.08c111.57,-71.11 239.79,-106.27 385.4,-106.27 266.64,0 400.14,141.07 400.14,423.22l0 737.88zm-181.91 -574.12l-273.45 37.82c-84.35,11.73 -147.88,32.53 -190.62,62.79 -42.74,29.88 -64.3,82.83 -64.3,158.84 0,55.23 19.67,100.6 59.38,135.78 39.34,35.17 91.91,52.57 157.71,52.57 90.02,0 164.52,-31.77 223.15,-94.56 59,-63.16 88.13,-143.33 88.13,-240.16l0 -113.08zm2135.36 574.12l-181.54 0 0 -651.66c0,-125.56 -19.67,-216.33 -58.25,-272.31 -38.95,-56.36 -104,-84.35 -195.53,-84.35 -77.54,0 -143.72,35.56 -197.8,106.28 -54.47,71.1 -81.7,155.82 -81.7,254.91l0 647.12 -181.54 0 0 -673.59c0,-223.15 -86.24,-334.72 -258.32,-334.72 -79.81,0 -145.23,33.29 -197.05,100.22 -51.81,66.95 -77.53,153.93 -77.53,260.97l0 647.12 -181.92 0 0 -1134.62 181.92 0 0 179.64 4.54 0c80.18,-137.66 197.8,-206.12 352.11,-206.12 77.53,0 145.23,21.56 202.72,64.68 57.87,43.11 97.2,99.84 118.75,170.19 83.97,-156.58 209.53,-234.87 376.7,-234.87 249.62,0 374.42,153.93 374.42,461.8l0 699.3zm896.73 -40.85l0 -195.15c98.72,72.99 208.02,109.67 326.77,109.67 159.6,0 239.41,-53.33 239.41,-159.6 0,-30.26 -6.81,-55.98 -20.43,-76.78 -13.99,-21.18 -32.15,-39.71 -55.6,-55.98 -23.07,-16.26 -50.68,-31.01 -82.07,-43.87 -31.39,-12.86 -65.06,-26.48 -101.36,-40.47 -50.3,-20.05 -94.18,-40.1 -132.37,-60.52 -37.82,-20.05 -69.59,-43.12 -95.31,-68.46 -25.34,-25.72 -44.63,-54.46 -57.49,-86.99 -12.86,-32.53 -19.29,-70.73 -19.29,-114.22 0,-53.33 12.1,-100.22 36.31,-141.44 24.58,-40.85 57.11,-75.27 97.58,-102.87 40.85,-27.61 86.99,-48.79 139.18,-62.79 51.82,-13.99 105.89,-20.8 161.12,-20.8 98.33,0 186.07,17.02 263.61,50.68l0 184.19c-83.21,-54.84 -179.27,-82.08 -287.82,-82.08 -34.04,0 -64.68,3.79 -92.29,11.73 -27.23,7.56 -50.68,18.53 -70.35,32.53 -19.29,13.99 -34.42,31.01 -45.39,50.3 -10.59,19.67 -15.88,41.23 -15.88,65.06 0,29.5 5.29,54.08 15.88,74.13 10.97,20.04 26.48,37.82 47.28,53.33 20.43,15.51 45.77,29.5 75.27,41.98 29.5,12.48 63.16,26.1 100.98,40.85 49.92,19.29 95.31,38.96 135.01,59.38 39.72,20.43 73.76,43.12 102.12,68.84 27.98,25.34 49.54,54.84 64.67,88.13 15.13,33.28 22.7,72.62 22.7,118.37 0,56.36 -12.49,105.14 -37.07,146.37 -24.96,41.22 -57.87,75.64 -99.1,102.87 -41.6,27.61 -89.26,47.65 -142.96,61.27 -54.08,13.24 -110.43,19.67 -169.81,19.67 -116.49,0 -217.85,-22.32 -303.32,-67.33zm1804.82 -11.35c-87,52.58 -190.62,78.68 -310.13,78.68 -161.87,0 -292.36,-52.58 -391.83,-157.72 -99.09,-105.13 -149.01,-241.67 -149.01,-409.6 0,-186.83 53.71,-336.98 160.74,-450.45 107.03,-113.08 250,-169.81 428.89,-169.81 99.84,0 187.59,18.15 263.62,55.22l0 186.08c-84.35,-59 -174.36,-88.51 -270.43,-88.51 -115.73,0 -211.04,41.61 -285.17,124.81 -74.13,82.83 -111.57,192.13 -111.57,327.15 0,133.12 35.18,237.89 104.76,314.66 69.97,76.78 163.38,115.35 281.01,115.35 99.1,0 192.13,-32.9 279.13,-98.72l0 172.84zm748.85 78.68c-167.55,0 -301.43,-52.96 -401.66,-158.85 -99.84,-105.89 -150.15,-246.59 -150.15,-421.7 0,-190.62 52.2,-339.26 156.2,-446.67 104.38,-107.03 245.08,-160.36 422.46,-160.36 169.06,0 301.05,51.82 395.99,156.2 94.93,104 142.2,248.48 142.2,433.05 0,181.16 -51.06,326.01 -153.17,434.94 -102.49,108.92 -239.79,163.39 -411.87,163.39zm13.24 -1034.79c-116.49,0 -208.78,39.72 -276.86,119.14 -68.08,79.42 -102.11,188.72 -102.11,328.66 0,134.26 34.42,240.16 103.25,317.69 68.83,77.53 160.73,116.48 275.72,116.48 117.61,0 208.01,-38.2 271.18,-114.21 63.16,-76.03 94.55,-184.19 94.55,-324.5 0,-141.83 -31.39,-251.14 -94.55,-327.91 -63.17,-77.16 -153.56,-115.35 -271.18,-115.35zm1434.17 57.49c-31.77,-24.2 -77.54,-36.31 -137.29,-36.31 -77.92,0 -142.58,36.31 -194.78,109.68 -51.82,73 -77.91,172.84 -77.91,299.16l0 578.28 -181.92 0 0 -1134.62 181.92 0 0 233.73 4.54 0c25.72,-79.81 65.05,-141.83 118.37,-186.83 53.33,-44.64 112.7,-66.95 178.51,-66.95 47.28,0 83.22,5.29 108.55,15.51l0 188.34zm383.5 786.68l-4.54 0 0 686.08 -181.92 0 0 -1656.56 181.92 0 0 199.31 4.54 0c89.26,-150.52 220.11,-225.79 392.2,-225.79 145.98,0 260.21,50.68 342.27,152.42 82.08,101.35 122.92,237.51 122.92,408.08 0,189.86 -46.14,341.9 -138.42,456.13 -92.29,113.83 -218.61,170.95 -378.97,170.95 -147.12,0 -260.21,-63.55 -340,-190.62zm-4.54 -457.64l0 158.47c0,93.8 30.26,173.6 91.53,239.03 60.89,65.43 138.04,97.96 231.84,97.96 110.06,0 196.29,-41.98 258.7,-126.32 62.41,-84.34 93.8,-201.2 93.8,-351.35 0,-126.32 -29.12,-225.04 -87.75,-296.9 -58.25,-71.49 -137.29,-107.41 -236.76,-107.41 -105.89,0 -190.62,36.69 -254.91,110.06 -64.3,73.75 -96.45,165.65 -96.45,276.47zm1245.06 -801.04c-32.15,0 -60.14,-10.97 -82.83,-33.29 -23.07,-21.94 -34.42,-49.93 -34.42,-83.97 0,-34.04 11.35,-62.4 34.42,-84.72 22.69,-22.69 50.68,-34.04 82.83,-34.04 33.29,0 61.65,11.35 85.1,34.04 23.08,22.32 34.8,50.68 34.8,84.72 0,32.53 -11.72,60.14 -34.8,82.84 -23.45,23.07 -51.81,34.42 -85.1,34.42zm88.89 1422.82l-181.92 0 0 -1134.62 181.92 0 0 1134.62zm841.9 26.48c-167.55,0 -301.43,-52.96 -401.66,-158.85 -99.84,-105.89 -150.15,-246.59 -150.15,-421.7 0,-190.62 52.2,-339.26 156.2,-446.67 104.38,-107.03 245.08,-160.36 422.46,-160.36 169.06,0 301.05,51.82 395.99,156.2 94.93,104 142.2,248.48 142.2,433.05 0,181.16 -51.06,326.01 -153.17,434.94 -102.49,108.92 -239.79,163.39 -411.87,163.39zm13.24 -1034.79c-116.49,0 -208.78,39.72 -276.86,119.14 -68.08,79.42 -102.11,188.72 -102.11,328.66 0,134.26 34.42,240.16 103.25,317.69 68.83,77.53 160.73,116.48 275.72,116.48 117.61,0 208.01,-38.2 271.18,-114.21 63.16,-76.03 94.55,-184.19 94.55,-324.5 0,-141.83 -31.39,-251.14 -94.55,-327.91 -63.17,-77.16 -153.56,-115.35 -271.18,-115.35zm1784.39 1008.31l-181.92 0 0 -647.12c0,-240.92 -87.75,-361.19 -263.62,-361.19 -90.77,0 -166.03,34.04 -225.41,102.49 -59.76,68.46 -89.26,154.69 -89.26,258.7l0 647.12 -181.92 0 0 -1134.62 181.92 0 0 188.34 4.54 0c85.48,-143.34 209.52,-214.82 372.15,-214.82 124.05,0 218.99,40.09 284.8,120.27 65.81,79.8 98.72,195.91 98.72,347.19l0 693.64zm1059.36 -1588.86l-762.47 1852.48 -169.43 0 760.19 -1852.48 171.71 0zm1237.51 969.35l-952.71 478.82 0 -165.28 713.67 -345.68 0 -6.43 -713.67 -394.47 0 -166.41 952.71 534.03 0 65.43z"/>
 </g>
</svg>
