<svg xmlns="http://www.w3.org/2000/svg" height="935pt" version="1.1" viewBox="-55 0 935 935.00002" width="935pt">
<g id="surface1">
<path d="M 692.359375 311.664062 L 823.550781 101.753906 C 826.550781 96.953125 826.710938 90.894531 823.964844 85.945312 C 821.210938 80.992188 816.003906 77.914062 810.335938 77.914062 L 155.835938 77.914062 C 147.226562 77.914062 140.25 84.890625 140.25 93.5 L 140.25 140.25 L 77.914062 140.25 L 77.914062 0 L 46.75 0 L 46.75 140.25 L 15.585938 140.25 C 6.976562 140.25 0 147.226562 0 155.835938 L 0 218.164062 C 0 226.773438 6.976562 233.75 15.585938 233.75 L 46.75 233.75 L 46.75 389.585938 L 15.585938 389.585938 C 6.976562 389.585938 0 396.558594 0 405.164062 L 0 467.5 C 0 476.109375 6.976562 483.085938 15.585938 483.085938 L 46.75 483.085938 L 46.75 935 L 77.914062 935 L 77.914062 483.085938 L 140.25 483.085938 L 140.25 529.835938 C 140.25 538.441406 147.226562 545.414062 155.835938 545.414062 L 810.335938 545.414062 C 816.003906 545.414062 821.210938 542.34375 823.964844 537.386719 C 826.710938 532.433594 826.550781 526.375 823.550781 521.582031 Z M 31.164062 171.414062 L 187 171.414062 L 187 202.585938 L 31.164062 202.585938 Z M 77.914062 233.75 L 140.25 233.75 L 140.25 389.585938 L 77.914062 389.585938 Z M 31.164062 420.75 L 187 420.75 L 187 451.914062 L 31.164062 451.914062 Z M 171.414062 514.25 L 171.414062 483.085938 L 202.585938 483.085938 C 211.191406 483.085938 218.164062 476.109375 218.164062 467.5 L 218.164062 405.164062 C 218.164062 396.558594 211.191406 389.585938 202.585938 389.585938 L 171.414062 389.585938 L 171.414062 233.75 L 202.585938 233.75 C 211.191406 233.75 218.164062 226.773438 218.164062 218.164062 L 218.164062 155.835938 C 218.164062 147.226562 211.191406 140.25 202.585938 140.25 L 171.414062 140.25 L 171.414062 109.085938 L 782.28125 109.085938 L 660.734375 303.410156 C 657.574219 308.464844 657.574219 314.871094 660.734375 319.921875 L 782.28125 514.25 Z M 171.414062 514.25 " style=" stroke:none;fill-rule:nonzero;fill:rgb(0%,0%,0%);fill-opacity:1;" />
</g>
</svg>