<svg xmlns="http://www.w3.org/2000/svg" height="937pt" version="1.1" viewBox="0 -47 937.5 937" width="937pt">
<g id="surface1">
<path d="M 468.75 234.625 C 373.871094 234.742188 296.992188 311.621094 296.875 406.5 C 296.875 496.90625 449.683594 703.921875 456.25 712.75 C 459.199219 716.714844 463.859375 719.058594 468.796875 719.058594 C 473.742188 719.058594 478.394531 716.714844 481.347656 712.75 C 487.816406 703.921875 640.625 496.90625 640.625 406.5 C 640.507812 311.621094 563.628906 234.742188 468.75 234.625 Z M 468.75 676.8125 C 420.3125 608.921875 328.125 467.285156 328.125 406.5 C 328.125 328.835938 391.085938 265.875 468.75 265.875 C 546.414062 265.875 609.375 328.835938 609.375 406.5 C 609.375 467.238281 517.1875 608.890625 468.75 676.8125 Z M 468.75 676.8125 " style=" stroke:none;fill-rule:nonzero;fill:rgb(0%,0%,0%);fill-opacity:1;" />
<path d="M 468.75 312.75 C 416.984375 312.75 375 354.734375 375 406.5 C 375 458.265625 416.984375 500.25 468.75 500.25 C 520.515625 500.25 562.5 458.265625 562.5 406.5 C 562.445312 354.742188 520.507812 312.804688 468.75 312.75 Z M 468.75 469 C 434.234375 469 406.25 441.015625 406.25 406.5 C 406.25 371.984375 434.234375 344 468.75 344 C 503.265625 344 531.25 371.984375 531.25 406.5 C 531.25 441.015625 503.265625 469 468.75 469 Z M 468.75 469 " style=" stroke:none;fill-rule:nonzero;fill:rgb(0%,0%,0%);fill-opacity:1;" />
<path d="M 890.625 62.75 L 859.375 62.75 L 859.375 0.25 L 828.125 0.25 L 828.125 62.75 L 734.375 62.75 L 734.375 0.25 L 703.125 0.25 L 703.125 62.75 L 609.375 62.75 L 609.375 0.25 L 578.125 0.25 L 578.125 62.75 L 484.375 62.75 L 484.375 0.25 L 453.125 0.25 L 453.125 62.75 L 359.375 62.75 L 359.375 0.25 L 328.125 0.25 L 328.125 62.75 L 234.375 62.75 L 234.375 0.25 L 203.125 0.25 L 203.125 62.75 L 109.375 62.75 L 109.375 0.25 L 78.125 0.25 L 78.125 62.75 L 46.875 62.75 C 20.992188 62.75 0 83.742188 0 109.625 L 0 797.125 C 0 823.007812 20.992188 844 46.875 844 L 890.625 844 C 916.507812 844 937.5 823.007812 937.5 797.125 L 937.5 109.625 C 937.5 83.742188 916.507812 62.75 890.625 62.75 Z M 46.875 94 L 78.125 94 L 78.125 125.25 L 109.375 125.25 L 109.375 94 L 203.125 94 L 203.125 125.25 L 234.375 125.25 L 234.375 94 L 328.125 94 L 328.125 125.25 L 359.375 125.25 L 359.375 94 L 453.125 94 L 453.125 125.25 L 484.375 125.25 L 484.375 94 L 578.125 94 L 578.125 125.25 L 609.375 125.25 L 609.375 94 L 703.125 94 L 703.125 125.25 L 734.375 125.25 L 734.375 94 L 828.125 94 L 828.125 125.25 L 859.375 125.25 L 859.375 94 L 890.625 94 C 899.257812 94 906.25 100.992188 906.25 109.625 L 906.25 156.5 L 31.25 156.5 L 31.25 109.625 C 31.25 100.992188 38.242188 94 46.875 94 Z M 890.625 812.75 L 46.875 812.75 C 38.242188 812.75 31.25 805.757812 31.25 797.125 L 31.25 187.75 L 906.25 187.75 L 906.25 797.125 C 906.25 805.757812 899.257812 812.75 890.625 812.75 Z M 890.625 812.75 " style=" stroke:none;fill-rule:nonzero;fill:rgb(0%,0%,0%);fill-opacity:1;" />
<path d="M 437.5 734.625 L 500 734.625 L 500 765.875 L 437.5 765.875 Z M 437.5 734.625 " style=" stroke:none;fill-rule:nonzero;fill:rgb(0%,0%,0%);fill-opacity:1;" />
<path d="M 515.625 734.625 L 546.875 734.625 L 546.875 765.875 L 515.625 765.875 Z M 515.625 734.625 " style=" stroke:none;fill-rule:nonzero;fill:rgb(0%,0%,0%);fill-opacity:1;" />
<path d="M 390.625 734.625 L 421.875 734.625 L 421.875 765.875 L 390.625 765.875 Z M 390.625 734.625 " style=" stroke:none;fill-rule:nonzero;fill:rgb(0%,0%,0%);fill-opacity:1;" />
</g>
</svg>