<?xml version="1.0" encoding="UTF-8"?>
<!DOCTYPE svg PUBLIC "-//W3C//DTD SVG 1.1//EN" "http://www.w3.org/Graphics/SVG/1.1/DTD/svg11.dtd">
<!-- Creator: CorelDRAW 2019 (64 Bit) -->
<svg xmlns="http://www.w3.org/2000/svg" xml:space="preserve" width="28.4536mm" height="16.3164mm" version="1.1" style="shape-rendering:geometricPrecision; text-rendering:geometricPrecision; image-rendering:optimizeQuality; fill-rule:evenodd; clip-rule:evenodd"
viewBox="0 0 1687.53 967.7"
 xmlns:xlink="http://www.w3.org/1999/xlink">
 <defs>
  <style type="text/css">
   <![CDATA[
    .fil1 {fill:#C54200}
    .fil0 {fill:#F95C00}
    .fil2 {fill:#FF9900}
   ]]>
  </style>
 </defs>
 <g id="Camada_x0020_1">
  <metadata id="CorelCorpID_0Corel-Layer"/>
  <g id="_2197487626608">
   <path class="fil0" d="M464.19 215.88c61.39,-47.68 218.07,-154.6 293.17,-192.97 129.9,-66.35 213.56,34.3 313.58,95.02 211.23,128.21 402.59,248.78 606.44,377.6l5.95 469.31c73.09,48.41 -827.91,-534.38 -1219.14,-748.97z"/>
   <path class="fil1" d="M733.48 371.97c63.12,35.5 248.22,147.32 298.54,177.57 36.4,-29.83 208.64,-235.39 261.06,-293.29l-69.73 -40.37c-64.88,35.58 -421.87,111.9 -489.86,156.09z"/>
   <path class="fil2" d="M1223.34 215.88c-61.39,-47.68 -218.07,-154.6 -293.17,-192.97 -129.9,-66.35 -215.8,26.48 -315.82,87.19 -211.23,128.21 -400.35,256.6 -604.2,385.43l-5.95 469.31c-73.09,48.41 827.91,-534.38 1219.14,-748.97z"/>
  </g>
 </g>
</svg>
