<svg height="480pt" viewBox="-9 0 480 480" width="480pt" xmlns="http://www.w3.org/2000/svg"><path d="m64 72h32v16h-32zm0 0"/><path d="m112 72h80v16h-80zm0 0"/><path d="m64 104h128v16h-128zm0 0"/><path d="m64 168h144v16h-144zm0 0"/><path d="m224 168h32v16h-32zm0 0"/><path d="m272 168h32v16h-32zm0 0"/><path d="m64 200h240v16h-240zm0 0"/><path d="m64 232h96v16h-96zm0 0"/><path d="m461.601562 93.089844c-.550781-2.050782-1.890624-3.796875-3.730468-4.859375l-27.710938-16c-1.84375-1.066407-4.039062-1.351563-6.097656-.796875-2.058594.558594-3.808594 1.914062-4.863281 3.765625l-12 20.800781c-7.648438-4.414062-17.429688-1.792969-21.847657 5.855469l-17.351562 30.015625v-91.871094c-.027344-22.082031-17.917969-39.9726562-40-40h-288c-22.082031.0273438-39.9726562 17.917969-40 40v400c.0273438 22.082031 17.917969 39.972656 40 40h288c22.082031-.027344 39.972656-17.917969 40-40v-148.136719l86.640625-150.0625c4.417969-7.652343 1.796875-17.4375-5.855469-21.855469l12-20.800781c1.0625-1.832031 1.355469-4.007812.816406-6.054687zm-40.511718 10.855468 8-13.855468 13.855468 8-8 13.855468zm-38.160156 98.0625 28-48.488281 13.855468 8-104 180.136719-41.601562-24 104-180.128906 13.855468 8-28 48.496094zm-95.457032 157.351563-6.945312-4-2.398438-19.855469 27.710938 16zm8.527344-343.359375v52.6875l-10.34375-10.34375c-3.125-3.121094-8.1875-3.121094-11.3125 0l-10.34375 10.34375v-52.6875zm56 424c0 13.253906-10.746094 24-24 24h-288c-13.253906 0-24-10.746094-24-24v-400c0-13.253906 10.746094-24 24-24h208v72c0 3.234375 1.949219 6.152344 4.9375 7.390625s6.429688.550781 8.71875-1.734375l18.34375-18.34375 18.34375 18.34375c2.289062 2.285156 5.730469 2.972656 8.71875 1.734375s4.9375-4.15625 4.9375-7.390625v-72h16c13.253906 0 24 10.746094 24 24v119.585938l-90.640625 156.988281c-.859375 1.5-1.21875 3.238281-1.015625 4.953125l4.800781 39.71875c.300781 2.5 1.761719 4.710937 3.945313 5.96875l-12 20.800781c-1.453125 2.476563-1.46875 5.542969-.039063 8.03125 1.429688 2.488281 4.085938 4.019531 6.957031 4.015625 2.871094-.007812 5.515626-1.550781 6.9375-4.046875l12-20.800781c2.179688 1.261718 4.824219 1.421875 7.144532.433594l36.796875-15.71875c1.59375-.679688 2.925781-1.855469 3.792969-3.355469l21.320312-37zm80.800781-292.34375-41.601562-24 8-13.855469 41.601562 24zm0 0"/><path d="m216 389.121094c-5.382812-.109375-10.703125 1.148437-15.464844 3.664062-5.347656 2.789063-11.722656 2.789063-17.070312 0-4.757813-2.523437-10.082032-3.785156-15.464844-3.664062v16c2.976562-.097656 5.925781.625 8.519531 2.085937 9.730469 4.898438 21.199219 4.898438 30.929688 0 5.351562-2.789062 11.726562-2.789062 17.078125 0 4.761718 2.515625 10.085937 3.78125 15.472656 3.671875v-16c-2.988281.101563-5.941406-.625-8.542969-2.09375-4.757812-2.511718-10.078125-3.773437-15.457031-3.664062zm0 0"/><path d="m168 320c3.367188 0 6.378906-2.105469 7.523438-5.273438 1.148437-3.167968.191406-6.714843-2.394532-8.871093l-48-40c-2.96875-2.480469-7.289062-2.480469-10.257812 0l-48 40c-2.585938 2.15625-3.542969 5.703125-2.394532 8.871093 1.144532 3.167969 4.15625 5.273438 7.523438 5.273438h8v48c0 4.417969 3.582031 8 8 8h64c4.417969 0 8-3.582031 8-8v-48zm-48-37.601562 25.902344 21.601562h-51.804688zm24 77.601562h-48v-40h48zm0 0"/></svg>