<svg id="Layer_1_1_" enable-background="new 0 0 64 64" height="512" viewBox="0 0 64 64" width="512" xmlns="http://www.w3.org/2000/svg"><path d="m54.165 29.714c-.826-.693-2.009-.739-2.882-.11l-.979.706c-.179-.435-.49-.812-.906-1.078-.76-.485-1.711-.496-2.484-.023-.404.248-.72.606-.875.96l-2.223 3.983c-.297-.216-.689-.266-1.029-.097l-5.455 2.721-8.532-11.376c-.122-.163-.291-.285-.483-.349l-3.859-1.286c.946-.312 1.777-.925 2.345-1.777.77-1.151.967-2.623.528-3.938l-.274-.824c-.086-.259-.13-.527-.13-.798v-7.466c2.361-2.296 2.954-5.603 2.986-5.798.049-.29-.033-.586-.224-.811-.19-.224-.469-.353-.763-.353h-10.989c-.838-.006-8.297-.016-10.979 2.637-.675.668-1.032 1.485-1.032 2.363 0 6.111 2.938 14.018 3.063 14.352.147.39.521.648.937.648.011 0 .022 0 .033-.001.281-.009.53-.143.708-.344l1.347 1.796-6.259 1.58c-.402.102-.7.442-.748.855l-3 26c-.033.283.057.566.247.779.189.213.461.335.746.335v3c0 1.654 1.346 3 3 3h3v3h2v-7h2.926c.553 0 1-.447 1-1v-5h6.074v5c0 .553.447 1 1 1h2v7h2v-7h.926c.553 0 1-.447 1-1v-15.6l7.37 7.31c.282.282.708.366 1.077.218l11.783-4.731c.299-.12.521-.377.598-.689.036-.148.036-.299.005-.444 1.551-.775 3.602-2.089 4.552-3.215l2.359-2.793c.404-.479.599-1.085.546-1.709s-.345-1.19-.823-1.594zm-29.007-11.856.275.825c.244.732.134 1.553-.295 2.194-.467.704-1.251 1.123-2.096 1.123h-9.616l-1.969-2.625 2.216-7.387c1.597-.039 5.495-.217 9.449-1.008.664-.133 1.26-.344 1.804-.606v6.054c0 .486.078.967.232 1.43zm-6.292 14.026-.94 1.88-.94-1.88.94-3.761zm-10.94-24.884c0-.218.046-.552.438-.94 1.72-1.701 7.155-2.061 9.366-2.061.067 0 .134 0 .195.001h9.698c-.543 1.62-1.899 4.421-4.895 5.02-4.837.967-9.753.98-9.802.98-.441 0-.831.29-.958.713l-2.089 6.964c-.854-2.82-1.953-7.139-1.953-10.677zm1.074 50h-3c-.552 0-1-.448-1-1v-3h3v1c0 .553.447 1 1 1zm3.926-4h-2.926v-16h-2v14h-3.878l2.792-24.199 6.012-1.518zm2-6v-23h1.97l-1.939 7.758c-.059.231-.031.476.075.689l2 4c.169.339.515.553.894.553s.725-.214.895-.553l2-4c.106-.214.134-.458.075-.689l-1.94-7.758h2.044v23zm21.311-3.173-8.607-8.537c-.287-.284-.717-.367-1.089-.213-.372.155-.615.52-.615.923v17h-2.926v-27.612l4.388 1.462 8.124 10.833-.104.053.893 1.789 6.681-3.332 3.137 3.667zm17.907-11.063-2.359 2.794c-.754.892-2.813 2.218-4.249 2.883l-2.314-2.705 2.602-4.669c.028-.063.075-.117.134-.153.16-.099.296-.039.364.004.067.043.177.144.156.33l-.097.852c-.045.393.146.775.488.976s.77.179 1.09-.052l2.494-1.797c.127-.093.303-.085.422.016l1.229 1.039c.095.079.116.18.12.232.005.052 0 .155-.08.25z"/><path d="m17 56h2v6h-2z"/><path d="m61.316 15.052-5.316-1.772v-1.28h1c.434 0 .817-.279.951-.69.134-.412-.013-.863-.363-1.118l-2.588-1.882v-5.31c0-.553-.447-1-1-1h-4c-.553 0-1 .447-1 1v.945l-2.412-1.754c-.35-.256-.826-.256-1.176 0l-11 8c-.351.255-.497.706-.363 1.118s.517.691.951.691h1v12h-3v2h4 18 6c.553 0 1-.447 1-1v-9c0-.431-.275-.812-.684-.948zm-15.316-10.816 3.412 2.481c.304.222.706.251 1.042.083.335-.17.546-.515.546-.891v-1.909h2v4.818c0 .32.153.62.412.809l.513.373h-15.85zm2 19.764h-4v-6h4zm2 0v-7c0-.553-.447-1-1-1h-6c-.553 0-1 .447-1 1v7h-4v-12h16v12zm10 0h-4v-8.613l4 1.334z"/></svg>